<svg xmlns="http://www.w3.org/2000/svg" viewBox="0 0 49.615 48.697"><defs><style>.cls-1{fill:#3a3a3a}</style></defs><g id="baby-stroller" transform="translate(-10.667)"><g id="Groupe_1312" data-name="Groupe 1312" transform="translate(10.667)"><g id="Groupe_1311" data-name="Groupe 1311"><path id="Tracé_6529" data-name="Tracé 6529" class="cls-1" d="M245.333 0v19.479h20.89C266.223 8.717 256.875 0 245.333 0z" transform="translate(-216.609)"/><path id="Tracé_6530" data-name="Tracé 6530" class="cls-1" d="M22.261 154.2l-2.481-4.87h-9.113v4.87h5.81s4.935 9.91 5.536 10.75a8.464 8.464 0 0 0-4.818 7.512c0 4.711 4.087 8.522 9.14 8.522a8.951 8.951 0 0 0 9.035-7.3h5.43a8.951 8.951 0 0 0 9.035 7.3c5.053 0 9.14-3.811 9.14-8.522a8.239 8.239 0 0 0-3.068-6.355 18.6 18.6 0 0 0 4.375-11.907zm4.074 21.914a3.661 3.661 0 1 1 0-7.3 3.661 3.661 0 1 1 0 7.3zm23.5 0a3.661 3.661 0 1 1 3.917-3.652 3.786 3.786 0 0 1-3.916 3.655z" transform="translate(-10.667 -132.289)"/></g></g></g></svg>