<svg xmlns="http://www.w3.org/2000/svg" viewBox="0 0 56.413 45.572"><defs><style>.cls-1{fill:#3a3a3a}</style></defs><g id="double-king-size-bed" transform="translate(0 -37.528)"><path id="Tracé_6525" data-name="Tracé 6525" class="cls-1" d="M56.971 67.972l-6.21-9.831V40.056l-2.528-2.528H9.522l-2.528 2.528v18.085l-6.21 9.831zM45.705 42.584V55.2a67.775 67.775 0 0 0-16.828-1.882A67.775 67.775 0 0 0 12.049 55.2V42.584z" transform="translate(-.671)"/><path id="Tracé_6526" data-name="Tracé 6526" class="cls-1" d="M0 269.831v5.056h5.89v6.962h5.056v-6.962h34.522v6.962h5.056v-6.962h5.89v-5.056z" transform="translate(0 -198.748)"/><path id="Tracé_6527" data-name="Tracé 6527" class="cls-1" d="M113.949 92.459v-2.945c0-1.748-2.537-3.166-5.667-3.166s-5.666 1.418-5.666 3.166v4.421a47.553 47.553 0 0 1 5.64-1.059c2.068-.197 5.693-.417 5.693-.417z" transform="translate(-87.794 -41.768)"/><path id="Tracé_6528" data-name="Tracé 6528" class="cls-1" d="M220.814 93.934v-4.42c0-1.748-2.537-3.166-5.667-3.166s-5.666 1.418-5.666 3.166v2.945s3.625.22 5.693.416a47.55 47.55 0 0 1 5.64 1.059z" transform="translate(-179.223 -41.768)"/></g></svg>