<svg xmlns="http://www.w3.org/2000/svg" viewBox="0 0 72.748 47.498"><defs><style>.cls-1{fill:#3a3a3a}</style></defs><g id="man-in-canoe" transform="translate(.002 -89.962)"><path id="Tracé_6536" data-name="Tracé 6536" class="cls-1" d="M172.784 100.89a5.468 5.468 0 1 0-5.267-5.465 5.37 5.37 0 0 0 5.267 5.465z" transform="translate(-142.412)"/><path id="Tracé_6537" data-name="Tracé 6537" class="cls-1" d="M217.343 233.919a9.033 9.033 0 0 1 9.983 1.584l.062-.052a8.839 8.839 0 0 1 12.315.058 9 9 0 0 1 8.688-2.067c4.968-3.472 7.952-7.909 7.952-12.746a11.834 11.834 0 0 0-.839-4.323 2.365 2.365 0 0 0-1.437-1.386 2.251 2.251 0 0 0-1.946.246c-7.787 5.02-18.393 8.156-30.135 8.3z" transform="translate(-184.77 -105.484)"/><path id="Tracé_6538" data-name="Tracé 6538" class="cls-1" d="M72.059 154.357a2.289 2.289 0 0 0-3.318 0 2.025 2.025 0 0 1-2.867 0 6.7 6.7 0 0 0-9.508 0 2.017 2.017 0 0 1-2.869 0 6.551 6.551 0 0 0-9.368-.133l-.138.137a2.016 2.016 0 0 1-2.867 0 6.7 6.7 0 0 0-9.5 0 2.023 2.023 0 0 1-2.869 0q-.117-.121-.239-.235l9.994-22.358 2.5-1.372a2.479 2.479 0 0 0 .976-3.291 2.393 2.393 0 0 0-.945-1l3.532-7.9a1.236 1.236 0 0 0-.573-1.619 1.152 1.152 0 0 0-1.556.592l-4.1 9.167-5.5 3.018-4.461-3.612a4.577 4.577 0 0 0-5.078-2.542 4.756 4.756 0 0 0-3.486 3.061l-3.927 10.872a48.184 48.184 0 0 1-10.5-5 2.259 2.259 0 0 0-1.946-.245 2.358 2.358 0 0 0-1.437 1.385 11.77 11.77 0 0 0-.841 4.32c0 4.821 2.972 9.239 7.908 12.706a8.812 8.812 0 0 1 8.732 2.108 8.921 8.921 0 0 1 7.342-2.347l4.458-9.974q-2.309-.234-4.534-.62l2.856-7.907 3.223 2.609a2.3 2.3 0 0 0 1.444.515 2.268 2.268 0 0 0 1.1-.283l1.382-.759-8.585 19.206a6.713 6.713 0 0 0-7.253 1.511 2.013 2.013 0 0 1-2.864-.006 6.563 6.563 0 0 0-9.506 0 2.022 2.022 0 0 1-2.867 0 2.289 2.289 0 0 0-3.318 0 2.5 2.5 0 0 0 0 3.444 6.7 6.7 0 0 0 9.5 0 1.982 1.982 0 0 1 2.874 0 6.545 6.545 0 0 0 9.5-.006 2.018 2.018 0 0 1 2.867 0 6.7 6.7 0 0 0 9.5 0 2.022 2.022 0 0 1 2.864 0 6.7 6.7 0 0 0 9.375.138l.136-.137a2.017 2.017 0 0 1 2.869 0 6.7 6.7 0 0 0 9.506 0 2.016 2.016 0 0 1 2.864 0 6.706 6.706 0 0 0 9.506 0 2.5 2.5 0 0 0 .012-3.443z" transform="translate(0 -22.387)"/></g></svg>