<svg id="street-map" xmlns="http://www.w3.org/2000/svg" viewBox="0 0 98.278 93.688"><defs><style>.cls-1{fill:#fff}.cls-2{fill:#5f54ff}</style></defs><path id="Tracé_6699" data-name="Tracé 6699" class="cls-1" d="M32.846 172.474L0 203.786v16.105l41.294-39.365z" transform="translate(0 -136.96)"/><path id="Tracé_6700" data-name="Tracé 6700" class="cls-2" d="M54.25 287.471l-28.505 27.174 15.066 4.223L64 296.764z" transform="translate(-20.184 -228.278)"/><path id="Tracé_6701" data-name="Tracé 6701" class="cls-2" d="M378.237 31.1l-8.481 8.085a15.84 15.84 0 0 1 2.918 9.148 16.036 16.036 0 0 1-3.722 10.2l-.593.717 18.714 17.84V33.575z" transform="translate(-288.795 -24.695)"/><path id="Tracé_6702" data-name="Tracé 6702" class="cls-2" d="M21.124 118.2L0 138.342v13.613l28.264-26.944z" transform="translate(0 -93.865)"/><path id="Tracé_6703" data-name="Tracé 6703" class="cls-1" d="M196.679 184.079L178.929 201l19.178 18.282 26.506-25.268-8.805-8.394-8.927 10.8z" transform="translate(-140.281 -146.176)"/><path id="Tracé_6704" data-name="Tracé 6704" class="cls-2" d="M269.133 64.791a10.569 10.569 0 0 0-10.8 10.3 9.88 9.88 0 0 0 2.324 6.372l8.475 10.257 8.468-10.257a9.883 9.883 0 0 0 2.328-6.377 10.568 10.568 0 0 0-10.795-10.295zm0 13.364a3.073 3.073 0 1 1 3.219-3.069 3.151 3.151 0 0 1-3.219 3.069z" transform="translate(-202.534 -51.45)"/><path id="Tracé_6705" data-name="Tracé 6705" class="cls-2" d="M288.928 278.809l9.151 8.724 26.719 7.49v-32.555l-9.365-8.927z" transform="translate(-226.521 -201.335)"/><path id="Tracé_6706" data-name="Tracé 6706" class="cls-2" d="M128.281 373.536l3.971 1.113 30.449-7.744-13.733-13.091z" transform="translate(-100.573 -280.961)"/><path id="Tracé_6707" data-name="Tracé 6707" class="cls-1" d="M139.181 39.2l6.512-6.208a15.99 15.99 0 0 1-3.068-9.355c0-9.083 7.752-16.473 17.28-16.473a17.767 17.767 0 0 1 9.813 2.925l5.948-5.67L159.9 0l-27.2 6.917-13.688 13.054z" transform="translate(-93.306)"/><path id="Tracé_6708" data-name="Tracé 6708" class="cls-2" d="M0 0v35.741L28.973 8.122z"/></svg>