<svg xmlns="http://www.w3.org/2000/svg" viewBox="0 0 131.132 107.083"><defs><style>.cls-2{stroke:#263238}.cls-2,.cls-5{fill:#5f54ff}</style></defs><g id="Groupe_1387" data-name="Groupe 1387" transform="translate(-1279.598 -928.987)"><path id="Tracé_6622" data-name="Tracé 6622" d="M255.23 239.774l22.584-56.664a4.622 4.622 0 0 1 8.586 3.422l-21.568 54.114z" transform="translate(1089.448 778.474)" stroke="#263238" fill="#f1faff"/><path id="Tracé_6628" data-name="Tracé 6628" class="cls-2" d="M130.927 448.2a17.883 17.883 0 0 0-20.176 0 14.065 14.065 0 0 1-15.869 0 17.883 17.883 0 0 0-20.176 0 14.065 14.065 0 0 1-15.869 0 17.883 17.883 0 0 0-20.176 0 14.065 14.065 0 0 1-15.869 0 17.883 17.883 0 0 0-20.176 0 1.919 1.919 0 1 0 2.154 3.176 14.065 14.065 0 0 1 15.869 0 17.884 17.884 0 0 0 20.176 0 14.065 14.065 0 0 1 15.869 0 17.884 17.884 0 0 0 20.176 0 14.065 14.065 0 0 1 15.869 0 17.884 17.884 0 0 0 20.176 0 14.066 14.066 0 0 1 15.869 0 1.919 1.919 0 1 0 2.154-3.176z" transform="translate(1278.33 581.078)"/><g id="Groupe_1384" data-name="Groupe 1384" transform="translate(1290.171 939.508)"><path id="Tracé_6625" data-name="Tracé 6625" d="M315.928 100.961l-15.752 1.693-10 11.652v14.786h.007v.005a26.03 26.03 0 0 1 25.038 9.931l.046.083 8.229-8.148.918-20.331z" transform="translate(-232.352 -94.767)" fill="#fcfaeb" stroke="#263238"/><g id="Groupe_1383" data-name="Groupe 1383"><path id="Tracé_6626" data-name="Tracé 6626" d="M98.195 89.136C92.463 79.973 73.048 73.23 49.979 73.23S7.502 79.973 1.765 89.135h3.221l6.989 4.482 7.349.8 5.179-2.992 8.221-3 4.412 1.2 9.386 4.793 6.191-1 7.988-2.98 5.791-1.808 7.389 1.812 5.991 3.979 9.586-1.2z" stroke-width="3" fill="#5f54ff" stroke="#263238"/><g id="Groupe_1325" data-name="Groupe 1325" transform="translate(32.725 3.435)"><path id="Tracé_6629" data-name="Tracé 6629" class="cls-2" d="M208.718 120.136a26.03 26.03 0 0 0-25.1-10S204.83 80.19 234.473 92c0 0-15.545 4.158-25.757 28.149z" transform="translate(-183.623 -89.245)"/><path id="Tracé_6630" data-name="Tracé 6630" class="cls-2" d="M396.715 139.1a26.03 26.03 0 0 1 25.092 10s5.207-36.325-24.436-48.14c0 0 8.424 13.711-.667 38.148z" transform="translate(-346.521 -98.201)"/></g><path id="Tracé_6639" data-name="Tracé 6639" class="cls-2" d="M9.662 0A9.662 9.662 0 1 1 0 9.662 9.662 9.662 0 0 1 9.662 0z"/></g></g><g id="Groupe_1326" data-name="Groupe 1326" transform="translate(1279.65 928.987)"><path id="Tracé_6631" data-name="Tracé 6631" class="cls-5" d="M79.939 37.1a1.773 1.773 0 0 1-1.773-1.773v-3.569a1.773 1.773 0 0 1 3.547 0v3.568a1.773 1.773 0 0 1-1.774 1.774z" transform="translate(-59.757 -29.985)"/><path id="Tracé_6632" data-name="Tracé 6632" class="cls-5" d="M124.5 58.948a1.774 1.774 0 0 1-1.254-3.028l2.523-2.523a1.773 1.773 0 0 1 2.508 2.508l-2.523 2.523a1.768 1.768 0 0 1-1.254.52z" transform="translate(-93.822 -47.487)"/><path id="Tracé_6633" data-name="Tracé 6633" class="cls-5" d="M146.524 111.7h-3.567a1.773 1.773 0 1 1 0-3.547h3.567a1.773 1.773 0 1 1 0 3.547z" transform="translate(-107.933 -89.742)"/><path id="Tracé_6634" data-name="Tracé 6634" class="cls-5" d="M127.021 158.779a1.767 1.767 0 0 1-1.254-.52l-2.523-2.523a1.773 1.773 0 0 1 2.508-2.508l2.523 2.523a1.774 1.774 0 0 1-1.254 3.028z" transform="translate(-93.822 -123.806)"/><path id="Tracé_6635" data-name="Tracé 6635" class="cls-5" d="M79.939 178.281a1.773 1.773 0 0 1-1.773-1.773v-3.568a1.773 1.773 0 0 1 3.547 0v3.568a1.773 1.773 0 0 1-1.774 1.773z" transform="translate(-59.757 -137.917)"/><path id="Tracé_6636" data-name="Tracé 6636" class="cls-5" d="M24.668 158.779a1.774 1.774 0 0 1-1.254-3.028l2.522-2.523a1.773 1.773 0 1 1 2.508 2.508l-2.522 2.523a1.768 1.768 0 0 1-1.254.52z" transform="translate(-17.502 -123.806)"/><path id="Tracé_6637" data-name="Tracé 6637" class="cls-5" d="M5.341 111.7H1.773a1.773 1.773 0 1 1 0-3.547h3.568a1.773 1.773 0 1 1 0 3.547z" transform="translate(0 -89.742)"/><path id="Tracé_6638" data-name="Tracé 6638" class="cls-5" d="M27.19 58.949a1.767 1.767 0 0 1-1.254-.52l-2.523-2.522a1.773 1.773 0 0 1 2.509-2.507l2.522 2.523a1.773 1.773 0 0 1-1.254 3.028z" transform="translate(-17.502 -47.487)"/></g></g></svg>