<svg id="linkedin-letters" xmlns="http://www.w3.org/2000/svg" viewBox="0 0 23.399 21.461"><defs><style>.cls-1{fill:#fff}</style></defs><g id="Groupe_100" data-name="Groupe 100"><path id="Rectangle_57" data-name="Rectangle 57" class="cls-1" transform="translate(.289 6.973)" d="M0 0h5.027v14.487H0z"/><path id="Tracé_104" data-name="Tracé 104" class="cls-1" d="M165.323 140.99a5.524 5.524 0 0 0-4.189-1.659 6.275 6.275 0 0 0-1.745.227 4.025 4.025 0 0 0-1.325.636 6.4 6.4 0 0 0-.861.76 6.294 6.294 0 0 0-.594.773v-2.06H151.6l.015.7q.015.7.015 4.327t-.031 9.459h5.012v-8.083a3.4 3.4 0 0 1 .167-1.184 3.119 3.119 0 0 1 .967-1.25 2.535 2.535 0 0 1 1.607-.5 2.2 2.2 0 0 1 1.927.87 4.1 4.1 0 0 1 .617 2.4v7.748h5.012v-8.3a6.778 6.778 0 0 0-1.585-4.864z" transform="translate(-143.508 -132.694)"/><path id="Tracé_105" data-name="Tracé 105" class="cls-1" d="M2.833 9.708a2.94 2.94 0 0 0-2.049.709A2.309 2.309 0 0 0 0 12.208a2.348 2.348 0 0 0 .762 1.783 2.816 2.816 0 0 0 2.011.716H2.8a2.942 2.942 0 0 0 2.064-.716 2.269 2.269 0 0 0 .769-1.783 2.391 2.391 0 0 0-.777-1.791 2.854 2.854 0 0 0-2.023-.709z" transform="translate(0 -9.708)"/></g></svg>