<svg id="meet" xmlns="http://www.w3.org/2000/svg" viewBox="0 0 53.361 53.361"><defs><style>.cls-1{fill:#3a3a3a}</style></defs><path id="Tracé_6531" data-name="Tracé 6531" class="cls-1" d="M141.476 128.152a13.324 13.324 0 1 0 13.324 13.324 13.339 13.339 0 0 0-13.324-13.324zm0 0" transform="translate(-114.796 -114.796)"/><path id="Tracé_6532" data-name="Tracé 6532" class="cls-1" d="M157.439 10.048a18.745 18.745 0 0 1 4.319-1.438 5.223 5.223 0 0 0 7.9.1 18.708 18.708 0 0 1 4.284 1.552 1.563 1.563 0 0 0 1.418-2.787 21.8 21.8 0 0 0-4.406-1.665 5.233 5.233 0 1 0-10.434-.58c0 .149.008.3.02.443a21.811 21.811 0 0 0-4.444 1.549 1.563 1.563 0 1 0 1.344 2.823zm0 0" transform="translate(-139.027)"/><path id="Tracé_6533" data-name="Tracé 6533" class="cls-1" d="M416.8 160.517c-.149 0-.3.008-.443.02a21.837 21.837 0 0 0-1.548-4.444 1.563 1.563 0 1 0-2.823 1.344 18.725 18.725 0 0 1 1.438 4.319 5.224 5.224 0 0 0-.1 7.9 18.7 18.7 0 0 1-1.551 4.284 1.563 1.563 0 1 0 2.787 1.418 21.82 21.82 0 0 0 1.665-4.406 5.233 5.233 0 1 0 .579-10.434zm0 0" transform="translate(-368.676 -139.026)"/><path id="Tracé_6534" data-name="Tracé 6534" class="cls-1" d="M173.979 411.989a18.724 18.724 0 0 1-4.319 1.438 5.224 5.224 0 0 0-7.9-.1 18.7 18.7 0 0 1-4.284-1.552 1.563 1.563 0 0 0-1.418 2.786 21.8 21.8 0 0 0 4.406 1.666 5.233 5.233 0 1 0 10.434.579c0-.149-.008-.3-.02-.443a21.811 21.811 0 0 0 4.444-1.549 1.563 1.563 0 1 0-1.344-2.823zm0 0" transform="translate(-139.029 -368.677)"/><path id="Tracé_6535" data-name="Tracé 6535" class="cls-1" d="M10.468 165.664a5.221 5.221 0 0 0-1.754-3.9 18.707 18.707 0 0 1 1.551-4.284 1.563 1.563 0 1 0-2.786-1.418 21.788 21.788 0 0 0-1.665 4.406 5.233 5.233 0 1 0-.58 10.434c.149 0 .3-.008.443-.02a21.834 21.834 0 0 0 1.548 4.444 1.563 1.563 0 1 0 2.823-1.344 18.725 18.725 0 0 1-1.438-4.319 5.223 5.223 0 0 0 1.857-3.994zm0 0" transform="translate(0 -139.028)"/></svg>