<svg id="router" xmlns="http://www.w3.org/2000/svg" viewBox="0 0 50.302 50.302"><defs><style>.cls-1{fill:#3a3a3a}</style></defs><g id="Groupe_1309" data-name="Groupe 1309"><g id="Groupe_1308" data-name="Groupe 1308"><path id="Tracé_6521" data-name="Tracé 6521" class="cls-1" d="M184.639 3.284a16.411 16.411 0 0 1 11.639 4.835l2.334-2.348a19.8 19.8 0 0 0-27.946 0l2.32 2.32a16.5 16.5 0 0 1 11.653-4.807z" transform="translate(-148.31)"/><path id="Tracé_6522" data-name="Tracé 6522" class="cls-1" d="M206.187 52.6l2.32 2.32a9.925 9.925 0 0 1 7-2.878 9.794 9.794 0 0 1 6.973 2.892l2.347-2.333a13.19 13.19 0 0 0-18.64 0z" transform="translate(-179.177 -42.361)"/><path id="Tracé_6523" data-name="Tracé 6523" class="cls-1" d="M44.713 139.178h-5.589V128h-5.589v11.178H5.589A5.588 5.588 0 0 0 0 144.767v11.178a5.588 5.588 0 0 0 5.589 5.589h39.124a5.588 5.588 0 0 0 5.589-5.589v-11.178a5.588 5.588 0 0 0-5.589-5.589zm-30.74 13.973H8.384v-5.589h5.589zm9.781 0h-5.589v-5.589h5.589v5.589zm9.781 0h-5.589v-5.589h5.589z" transform="translate(0 -111.233)"/></g></g></svg>