<svg xmlns="http://www.w3.org/2000/svg" viewBox="0 0 50.875 38.156"><g data-name="Groupe 1310"><path data-name="Tracé 6524" d="M10.909.31L.311 10.913a1.059 1.059 0 0 0-.311.75v22.253a4.244 4.244 0 0 0 4.24 4.24h42.4a4.244 4.244 0 0 0 4.239-4.24V4.239a4.244 4.244 0 0 0-4.24-4.24h-34.98a1.059 1.059 0 0 0-.75.311zm9.229 21.946a1.059 1.059 0 0 1-1.06-1.06v-4.24a1.059 1.059 0 0 1 1.06-1.06h4.24a1.059 1.059 0 0 1 1.06 1.06v4.24a1.059 1.059 0 0 1-1.06 1.06zm2.12 9.539a3.183 3.183 0 0 1-3.18-3.18v-3.18a1.059 1.059 0 0 1 1.06-1.06h4.24a1.059 1.059 0 0 1 1.06 1.06v5.3a1.059 1.059 0 0 1-1.06 1.06zm21.2-6.359a1.059 1.059 0 0 1 1.06 1.06v2.12a3.183 3.183 0 0 1-3.18 3.18h-2.12a1.059 1.059 0 0 1-1.06-1.06v-4.24a1.059 1.059 0 0 1 1.06-1.06h4.239zm0-8.479a1.059 1.059 0 0 1 1.06 1.06v4.239a1.059 1.059 0 0 1-1.06 1.06h-4.24a1.059 1.059 0 0 1-1.06-1.06v-4.24a1.059 1.059 0 0 1 1.06-1.06h4.24zm-2.12-10.6a3.183 3.183 0 0 1 3.18 3.18v4.24a1.059 1.059 0 0 1-1.06 1.06H37.1a1.061 1.061 0 0 0-1.06 1.06v14.84a1.059 1.059 0 0 1-1.06 1.06h-6.363a1.059 1.059 0 0 1-1.06-1.06V7.419a1.059 1.059 0 0 1 1.06-1.06h12.719zm-16.958 0a1.059 1.059 0 0 1 1.06 1.06v5.3a1.059 1.059 0 0 1-1.06 1.06h-4.24a1.059 1.059 0 0 1-1.06-1.06v-3.18a3.183 3.183 0 0 1 3.18-3.18z" fill="#3a3a3a"/></g></svg>