<svg id="twitter-logo-silhouette" xmlns="http://www.w3.org/2000/svg" viewBox="0 0 27.99 21.818">
  <defs>
    <style>
      .cls-1 {
        fill: #fff;
      }
    </style>
  </defs>
  <g id="Groupe_101" data-name="Groupe 101" transform="translate(0 0)">
    <path id="Tracé_107" data-name="Tracé 107" class="cls-1" d="M27.991,60.022a11.845,11.845,0,0,1-3.3.868,5.58,5.58,0,0,0,2.524-3.046,11.875,11.875,0,0,1-3.649,1.338,5.84,5.84,0,0,0-4.191-1.741,5.63,5.63,0,0,0-5.742,5.509,5.313,5.313,0,0,0,.149,1.255A16.538,16.538,0,0,1,1.951,58.448a5.3,5.3,0,0,0-.777,2.769A5.453,5.453,0,0,0,3.728,65.8a5.927,5.927,0,0,1-2.6-.692v.069a5.578,5.578,0,0,0,4.605,5.4,6.046,6.046,0,0,1-1.513.193,5.735,5.735,0,0,1-1.081-.1A5.72,5.72,0,0,0,8.5,74.5,11.832,11.832,0,0,1,1.37,76.856,12.71,12.71,0,0,1,0,76.78a16.729,16.729,0,0,0,8.8,2.479A15.884,15.884,0,0,0,25.138,63.582l-.019-.713A11.224,11.224,0,0,0,27.991,60.022Z" transform="translate(-0.001 -57.441)"/>
  </g>
</svg>
